<svg width="126" height="51" viewBox="0 0 126 51" xmlns="http://www.w3.org/2000/svg" xmlns:xlink="http://www.w3.org/1999/xlink"><title>Belmond logo black</title><defs><path id="a" d="M0 .096v14.468h12.84V.096H0z"/><path id="c" d="M.147 15.188h15.071V.116H.147v15.072z"/><path id="e" d="M24.685.109H.032v24.763h24.653V.109z"/></defs><g fill="#fff" fill-rule="evenodd"><path d="M7.089 41.849c1.506 0 3.116-.64 3.116-2.435v-.039c0-1.347-1.131-2.15-3.025-2.15H1.876v4.624h5.213zm.435 6.24c2.11 0 3.421-.925 3.421-2.415v-.037c0-1.987-2.345-2.283-3.744-2.283H1.876v4.735h5.648zM.297 49.596V35.721h6.904c1.549 0 2.85.45 3.663 1.265.623.623.94 1.396.94 2.296v.038c0 1.33-.62 2.404-1.763 3.088 1.64.62 2.502 1.725 2.502 3.229v.037c0 2.383-1.986 3.922-5.06 3.922H.297z"/><g transform="translate(0 35.329)"><mask id="b"><use xlink:href="#a"/></mask><path d="M2.173 8.322H7.2c1.288 0 3.447.258 3.447 1.986v.037c0 1.327-1.168 2.118-3.124 2.118h-5.35V8.322zm0-6.13H7.18c1.708 0 2.728.694 2.728 1.855v.038c0 1.984-2.158 2.138-2.82 2.138H2.174v-4.03zM7.2.097H0v14.467h7.484c3.203 0 5.356-1.695 5.356-4.219v-.037c0-1.451-.767-2.587-2.189-3.286.943-.735 1.45-1.777 1.45-3.03v-.039c0-.968-.356-1.835-1.028-2.506C10.204.576 8.83.096 7.201.096zm-5.621 12.96h5.945c2.277 0 3.718-1.04 3.718-2.712v-.037c0-1.632-1.423-2.58-4.041-2.58H1.579v5.329zm0-6.24h5.51c1.99 0 3.413-.965 3.413-2.732v-.038c0-1.46-1.197-2.448-3.322-2.448h-5.6v5.218zM7.201.69c1.5 0 2.712.435 3.452 1.177.55.55.853 1.25.853 2.086v.039c0 1.8-1.177 2.713-2.257 3.148 1.593.417 2.997 1.328 2.997 3.168v.037c0 2.219-1.896 3.626-4.763 3.626H.593V.69h6.608z" mask="url(#b)"/></g><path d="M20.535 49.596V35.721h10.6v1.503h-9.022v4.625h8.451v1.505h-8.451v4.735h9.121v1.507z"/><path d="M31.433 35.425H20.238v14.468h11.293v-2.101H22.41V43.65h8.451v-2.098H22.41v-4.03h9.023v-2.097zm-.594.593v.91h-9.023v5.218h8.451v.91h-8.451v5.33h9.122v.913H20.832V36.02h10.007zm8.665 13.578V35.721h1.58V48.09h9.206v1.507z"/><path d="M41.382 35.425h-2.175v14.468h11.38v-2.101h-9.205V35.425zm-.594.593v12.368h9.205v.913H39.8V36.02h.987zm27.051 13.578V38.72l-4.982 7.244-5.01-7.248v10.88h-1.546V35.721h1.385l5.174 7.623 5.172-7.623h1.382v13.875z"/><path d="M69.711 35.425h-1.836l-.177.26-4.838 7.13-4.84-7.13-.177-.26h-1.838v14.468h2.139V39.668l4.224 6.11.49.709.488-.71 4.196-6.101v10.217h2.169V35.425zm-.593.593V49.3h-.982V37.765l-5.28 7.676-5.306-7.676v11.534h-.952V36.02h.93l5.332 7.854 5.33-7.855h.928zm36.065 13.578l-8.909-11.245v11.245h-1.546V35.721h1.369l8.726 10.998V35.721h1.542v13.875z"/><path d="M106.662 35.425h-2.136v10.443L96.42 35.649l-.179-.224h-1.808v14.468h2.139V39.204l8.29 10.464.178.225h1.622V35.425zm-.594.593V49.3h-.742l-9.349-11.8v11.8h-.952V36.02h.929l9.166 11.552V36.018h.948zm12.205 12.071c3.377 0 5.736-2.218 5.736-5.393v-.038c0-3.148-2.413-5.434-5.736-5.434h-3.42V48.09h3.42zm-5 1.507V35.72h5c4.26 0 7.353 2.903 7.353 6.9v.037c0 4.02-3.093 6.938-7.353 6.938h-5z"/><path d="M115.15 37.521h3.123c3.202 0 5.438 2.113 5.438 5.138v.037c0 3-2.236 5.096-5.438 5.096h-3.122v-10.27zm3.123-2.096h-5.296v14.468h5.296c2.15 0 4.105-.74 5.505-2.085 1.383-1.328 2.145-3.157 2.145-5.15v-.036c0-4.17-3.218-7.197-7.65-7.197zm-3.716 12.96h3.716c3.698 0 6.032-2.521 6.032-5.69v-.036c0-3.15-2.334-5.731-6.032-5.731h-3.716v11.458zm3.716-12.367c4.175 0 7.056 2.864 7.056 6.604v.037c0 3.735-2.881 6.64-7.056 6.64h-4.703V36.02h4.703zm-35.778.947a5.67 5.67 0 1 0 0 11.341 5.67 5.67 0 0 0 0-11.341m7.239 5.734a7.239 7.239 0 1 1-14.478 0 7.239 7.239 0 0 1 14.478 0"/><g transform="translate(74.813 35.047)"><mask id="d"><use xlink:href="#c"/></mask><path d="M7.682 1.917V1.62a5.968 5.968 0 1 0 0 11.936 5.968 5.968 0 0 0 0-11.936v.594c1.485 0 2.826.601 3.8 1.574a5.356 5.356 0 0 1 1.573 3.8 5.355 5.355 0 0 1-1.573 3.8 5.355 5.355 0 0 1-3.8 1.573 5.356 5.356 0 0 1-3.8-1.574A5.354 5.354 0 0 1 2.31 7.588c0-1.485.6-2.826 1.574-3.8a5.355 5.355 0 0 1 3.8-1.574v-.297zm7.24 5.735h-.297a6.919 6.919 0 0 1-2.034 4.908 6.919 6.919 0 0 1-4.909 2.034 6.92 6.92 0 0 1-4.908-2.034A6.92 6.92 0 0 1 .74 7.652c0-1.918.777-3.652 2.034-4.909A6.92 6.92 0 0 1 7.682.71c1.918 0 3.652.776 4.91 2.033a6.918 6.918 0 0 1 2.033 4.909h.593a7.536 7.536 0 1 0-15.072 0 7.536 7.536 0 0 0 15.072 0h-.297z" mask="url(#d)"/></g><g transform="translate(50.625 .172)"><mask id="f"><use xlink:href="#e"/></mask><path d="M2.971 14.547c.631.26 1.36.494 2.177.699.226-.438.474-.885.74-1.336a25.886 25.886 0 0 1-1.229-.907 15.927 15.927 0 0 0-1.688 1.544zm4.175 2.037a26.351 26.351 0 0 1-1.503-.283c-.364.76-.648 1.47-.85 2.12a15.603 15.603 0 0 0 2.264-.314c.013-.49.044-1 .089-1.523zM4.67 11.838c.394-.295.81-.59 1.244-.88a27.258 27.258 0 0 1-.717-1.352c-.82.19-1.552.411-2.186.66a15.72 15.72 0 0 0 1.66 1.572zm2.553-3.53a25.745 25.745 0 0 1-.06-1.525 15.765 15.765 0 0 0-2.257-.354c.188.653.459 1.367.807 2.132.495-.097 1-.182 1.51-.253zM4.876 21.715c.443.361 1.3.296 2.383-.17a15.74 15.74 0 0 1-.21-2.496l-.006.001v-.007a15.76 15.76 0 0 1-2.49.305c-.238 1.167-.127 2.001.323 2.367zm2.673-8.165a28.469 28.469 0 0 1-.19-.276c-.078.12-.156.242-.234.366.121.08.244.158.367.236.018-.104.036-.213.057-.326zm-.9.87c-.206.35-.4.697-.58 1.038.373.078.764.15 1.167.215.03-.267.065-.54.103-.815a29.35 29.35 0 0 1-.69-.437zM10.03.868a.926.926 0 0 0-.197.02c-.564.124-1.04.817-1.353 1.967.66.362 1.358.828 2.083 1.393l.002-.004.006.005c.428-.823.869-1.54 1.314-2.139-.674-.803-1.327-1.242-1.855-1.242zm1.264 3.973c.374.315.755.656 1.139 1.02.38-.348.767-.682 1.156-.998a15.897 15.897 0 0 0-1.13-1.987 16.047 16.047 0 0 0-1.165 1.965zm1.754-2.72a15.8 15.8 0 0 1 1.274 2.16l.005-.005.004.007a15.758 15.758 0 0 1 2.11-1.354c-.292-1.155-.755-1.857-1.318-1.991-.569-.136-1.297.293-2.075 1.183zm3.578 1.747c-.6.332-1.236.755-1.903 1.264.203.454.397.926.581 1.413.495-.148.989-.28 1.475-.397a16.093 16.093 0 0 0-.153-2.28zm-9.242 6.168a35.194 35.194 0 0 1-.088-.814c-.395.055-.788.12-1.175.192.177.35.365.7.56 1.049.232-.145.466-.287.701-.425l.002-.002zm.133.986l-.373.23c.075.125.152.25.23.374l.195-.273a29.338 29.338 0 0 1-.052-.33zm-2.11 1.407c.31.238.63.472.959.701.148-.234.295-.46.445-.684-.148-.23-.293-.464-.435-.697-.334.225-.658.452-.968.68zm2.239-9.983c.236-.795.535-1.342.85-1.717-.975.32-1.89.75-2.73 1.28.545-.007 1.175.137 1.88.437zm-2.598.691c-.457.356-.583 1.188-.365 2.362.752.04 1.584.156 2.482.35v-.006l.007.001c.03-.93.115-1.766.256-2.495-1.073-.484-1.929-.565-2.38-.212zm9.859 20.968c.563-.123 1.038-.817 1.352-1.969a15.783 15.783 0 0 1-2.081-1.391l-.004.006-.006-.005a15.962 15.962 0 0 1-1.312 2.134c.76.908 1.483 1.348 2.05 1.225zm8.267-9.038c.462.663.704 1.227.805 1.7.337-.914.568-1.871.681-2.855-.303.377-.773.771-1.486 1.155zm.044-4.942c.707.399 1.17.803 1.466 1.186a12.464 12.464 0 0 0-.2-1.328 12.49 12.49 0 0 0-.428-1.546c-.11.471-.361 1.032-.838 1.688zm-.19 7.626c.256-.52.01-1.324-.693-2.286a15.78 15.78 0 0 1-2.387.762l.004.008-.008.002c.374.845.658 1.633.847 2.353 1.191-.026 1.983-.322 2.237-.839zM3.755 5.492c-.134-.823-.101-1.447.02-1.922-.726.7-1.361 1.484-1.896 2.334.44-.216 1.043-.376 1.876-.412zm8.515 18.107c-.505.557-1.007.947-1.494 1.172a12.3 12.3 0 0 0 2.956.023c-.48-.233-.97-.629-1.462-1.195zM1.52 14.865C.795 14.457.328 14.042.032 13.65a12.356 12.356 0 0 0 .645 2.937c.104-.48.356-1.05.844-1.722zM12.475 1.39c.51-.562 1.016-.954 1.508-1.176a12.319 12.319 0 0 0-2.994-.029c.488.23.985.63 1.486 1.205zm4.62 21.152c-.231.779-.522 1.32-.83 1.694a12.313 12.313 0 0 0 2.667-1.25c-.534-.002-1.15-.15-1.838-.444zm-5.4.326a15.682 15.682 0 0 1-1.277-2.16l-.005.005-.003-.007a15.474 15.474 0 0 1-2.108 1.352c.29 1.157.752 1.861 1.316 1.996.563.134 1.3-.293 2.077-1.186zm-9.59-8.727a15.8 15.8 0 0 1 1.825-1.725l-.006-.005.004-.004c-.7-.592-1.3-1.179-1.79-1.752-1.062.541-1.645 1.149-1.65 1.73-.006.578.565 1.196 1.617 1.756zm14.658-7.05c-.378.094-.76.199-1.144.312.089.256.176.516.26.779.262.026.531.057.81.094.035-.405.06-.8.074-1.185zM1.568 9.922C1.09 9.238.85 8.66.755 8.178c-.35.938-.588 1.923-.701 2.937.302-.388.778-.795 1.514-1.191zm2.27 8.51c.202-.717.502-1.503.894-2.343l-.006-.002.002-.005a15.774 15.774 0 0 1-2.375-.804c-.721.947-.982 1.747-.735 2.272.246.524 1.028.833 2.22.883zm9.609 1.718a27.733 27.733 0 0 1-1.14-1.02c-.373.342-.76.675-1.156.997.367.756.745 1.421 1.131 1.987a16.06 16.06 0 0 0 1.165-1.964zM7.46 22.452c-.703.285-1.329.419-1.868.407.834.544 1.733.988 2.678 1.32-.306-.382-.592-.933-.81-1.727zm-3.835-3.115c-.83-.053-1.432-.224-1.868-.45A12.332 12.332 0 0 0 3.61 21.25c-.112-.477-.132-1.099.016-1.913zm17.362.16c.13.8.104 1.413-.01 1.883a12.434 12.434 0 0 0 1.847-2.275c-.437.206-1.03.357-1.837.392zM1.715 7.24c-.256.518-.01 1.323.691 2.286.688-.29 1.487-.545 2.387-.762l-.004-.009.008-.001A15.69 15.69 0 0 1 3.95 6.4c-1.19.026-1.98.322-2.235.839zm18.36 5.91c-.391.293-.81.588-1.25.882.26.455.5.908.72 1.351.818-.19 1.55-.41 2.185-.659a16.038 16.038 0 0 0-1.656-1.574zm2.529 1.184c1.061-.541 1.644-1.148 1.65-1.726.005-.579-.566-1.197-1.618-1.76-.5.564-1.11 1.142-1.821 1.722l.005.004-.006.005a15.941 15.941 0 0 1 1.79 1.755zm-5.085 2.348c.036.522.056 1.033.06 1.524a16.06 16.06 0 0 0 2.257.355 15.81 15.81 0 0 0-.807-2.132 28.12 28.12 0 0 1-1.51.253zm-.235-14.146c.697-.282 1.32-.416 1.855-.406a12.442 12.442 0 0 0-2.67-1.32c.307.38.594.93.815 1.726zM8.249 9.543l.293-.16c.03-.105.063-.213.097-.323l-.434.046c.013.142.028.287.044.437zm12.657-2.987a15.69 15.69 0 0 1-.896 2.342l.007.002-.004.007c.896.233 1.69.503 2.375.804.72-.949.982-1.749.736-2.272-.246-.524-1.028-.834-2.218-.883zm.212-.904c.814.052 1.408.217 1.842.436a12.312 12.312 0 0 0-1.823-2.33c.108.473.126 1.09-.019 1.894zm-1.425 16.2c.456-.355.583-1.187.365-2.362a15.912 15.912 0 0 1-2.483-.35v.008l-.005-.002c-.028.924-.115 1.76-.258 2.495 1.074.484 1.929.565 2.381.212zm.173-18.578c-.443-.361-1.299-.297-2.382.168.127.736.197 1.573.208 2.498l.007-.001v.007c.902-.177 1.737-.28 2.49-.305.237-1.168.126-2.002-.323-2.367zm1.904 7.167c-.631-.26-1.36-.493-2.176-.698-.224.433-.472.88-.74 1.335.432.299.844.601 1.232.905a15.727 15.727 0 0 0 1.684-1.542zm-4.411 4.51l-.002.003c.034.285.063.556.087.814.395-.055.788-.12 1.175-.192a26.428 26.428 0 0 0-.563-1.049c-.23.144-.463.285-.697.424zm1.019-3.092c-.147.232-.296.461-.448.687.143.223.286.454.432.695a26.5 26.5 0 0 0 .974-.682 25.715 25.715 0 0 0-.958-.7zm-.975-1.732v.003c.233.144.464.29.691.438.206-.351.4-.697.578-1.035-.376-.078-.766-.15-1.167-.214-.03.266-.064.535-.103.807l.001.001zm-.21 1.315l.19.275.236-.368a34.56 34.56 0 0 0-.37-.237c-.019.112-.037.222-.057.33zM8.14 15.804c.143.019.288.036.434.053l-.092-.323a40.734 40.734 0 0 1-.29-.166c-.019.147-.036.292-.052.436zm9.082-1.837c.125-.076.249-.152.371-.23-.076-.126-.152-.25-.227-.37l-.195.273.051.327zm.373-5.56c.519.083 1.022.177 1.502.282.364-.76.648-1.47.851-2.122a15.84 15.84 0 0 0-2.264.314 25.834 25.834 0 0 1-.09 1.527zm-5.944 10.084c-.191-.193-.382-.39-.57-.589-.269.096-.525.185-.773.267.144.377.293.744.448 1.1a25.6 25.6 0 0 0 .895-.778zm4.958-1.696c-.266.03-.538.056-.813.08l-.003.004a33.15 33.15 0 0 1-.271.765c.387.123.767.235 1.139.335-.008-.385-.025-.78-.052-1.184zm-6.423.126a25.04 25.04 0 0 1-.333-.023l.14.412c.136-.044.273-.091.414-.14a43.168 43.168 0 0 1-.221-.25zm-2.07 4.2a15.62 15.62 0 0 0 1.9-1.263 26.34 26.34 0 0 1-.581-1.413c-.495.148-.988.28-1.475.397.003.843.055 1.606.156 2.28zm8.544-2.197a26.918 26.918 0 0 1-1.467-.426c-.192.48-.395.95-.609 1.404.656.52 1.285.954 1.879 1.299.113-.675.18-1.437.197-2.277zm-8.61-2.206c-.034.403-.058.797-.073 1.179.379-.094.761-.198 1.144-.312a27.6 27.6 0 0 1-.258-.777c-.274-.028-.545-.06-.812-.094v.004zm4.583.84a31.309 31.309 0 0 1-.31-.13l-.312.124c.102.106.204.21.307.313.104-.1.209-.202.315-.307zm2.17-.614l-.334.016-.225.245.41.148c.05-.135.1-.272.149-.41zm-.477 1.262a36.75 36.75 0 0 1-.762-.278l-.003.003-.005-.002c-.2.202-.393.392-.582.574.296.278.59.544.882.796.163-.356.32-.721.47-1.093zM10.415 6.783c.247.087.5.18.765.279l.004-.004.004.001c.207-.209.397-.397.578-.573-.296-.28-.591-.545-.881-.795-.164.358-.321.723-.47 1.092zm2.674-.284c.19.193.38.388.567.585l.003.003c.269-.096.525-.185.774-.268a26.001 26.001 0 0 0-.448-1.099c-.3.25-.6.51-.896.78zm1.243 1.32l.22.25.336.025c-.047-.14-.094-.278-.142-.415-.135.045-.273.091-.414.14zM16.6 9.187a29.76 29.76 0 0 0-.433-.054l.09.32.291.167c.019-.146.036-.29.052-.433zM8.081 6.065c.473.122.964.265 1.466.425.191-.475.395-.944.61-1.4a15.737 15.737 0 0 0-1.879-1.301c-.112.668-.178 1.43-.197 2.276zm4.027 1.366l.31.13.31-.124a35.727 35.727 0 0 0-.306-.312 40.58 40.58 0 0 0-.314.306zm-3.976.763c.265-.03.537-.057.813-.08l.002-.004c.09-.262.18-.518.271-.765A26.657 26.657 0 0 0 8.08 7.01c.007.384.024.78.052 1.184zm8.36 7.252a26.72 26.72 0 0 1-.292.16c-.03.105-.063.212-.097.323.146-.014.29-.03.434-.046a24.98 24.98 0 0 0-.044-.437zm-6.407-7.81c.135.047.272.096.412.148l-.223.243c-.113.006-.225.011-.337.018l.148-.41z" mask="url(#f)"/></g></g></svg>