<svg width="102" height="47" viewBox="0 0 102 47" xmlns="http://www.w3.org/2000/svg" xmlns:xlink="http://www.w3.org/1999/xlink"><title>181EA3EC-39E1-42D4-836B-C22DA20581CD</title><defs><path id="a" d="M4.779 4.909V.16H.042v4.75h4.737z"/><path id="c" d="M93.881.153H0V47h93.881V.153z"/></defs><g fill="none" fill-rule="evenodd"><g transform="translate(97 26)"><mask id="b" fill="#fff"><use xlink:href="#a"/></mask><path d="M2.41.16a2.375 2.375 0 0 0 0 4.749A2.369 2.369 0 0 0 4.78 2.54 2.376 2.376 0 0 0 2.41.16" fill="#FEFEFE" mask="url(#b)"/></g><mask id="d" fill="#fff"><use xlink:href="#c"/></mask><path d="M93.648 27.265c-.62-.636-1.383-.45-2.163.09-.544.388-1.454.428-.943-1.724.47-2.041 2.221-5.363 2.469-5.952.347-.84-.103-1.864-1.587-1.988-.647-.057-1.27.09-1.888.611-.692-.78-1.751-1.511-3.44-1.511-2.749 0-6.534 2.116-8.748 5.523-1.23 1.83-2.902 3.837-4.78 5.084-.583.385-1.248.595-1.664.446-.862-.316-.616-1.577 1.227-3.688 2.952-3.402 3.796-5.95 2.081-7.464-1.166-1.03-3.093-1.136-5.047-.215-2.068.98-3.238 2.049-4.322 3.16 2.715-5.65 6.096-12.25 8.342-15.97 1.052-1.723 1.052-3.208-.426-3.47-1.296-.227-2.602.402-3.657 2.621-2.412 5.096-4.404 9.622-6.768 14.704v-.01c-1.53 3.093-4.348 7.425-8.047 9.886-.582.385-1.245.595-1.658.446-.868-.316-.62-1.577 1.22-3.688 2.95-3.402 3.798-5.95 2.083-7.464-1.169-1.03-3.094-1.136-5.05-.215-2.564 1.214-3.754 2.56-5.092 3.955 1.127-1.736 1-3.328-.074-3.67-1.413-.456-2.156.1-3.5 3.945-.685 1.877-2.544 5.447-5.194 6.647-.603.283-1.718.43-1.212-1.723.478-2.041 2.219-5.363 2.474-5.952.337-.84-.107-1.864-1.587-1.988-.645-.057-1.272.09-1.893.611-.693-.78-1.75-1.511-3.445-1.511-3.578 0-8.942 3.603-10.264 8.972-.632.907-1.82 1.879-3.353 1.923-2.735.084-4.234-2.36-4.874-5.197 6.154-1.217 11.938-4.674 13.062-10.112 1.076-5.147-2.444-9.602-8.74-9.473-8.679.18-14.528 6.478-15.933 9.153-.978 1.864-.084 3.366 1.166 3.311.89-.043 2.56-.635 3.085-2.464.841-2.916 4.127-6.26 9.714-6.734 4.223-.357 6.62 2.341 6.232 5.837-.482 4.258-4.637 6.706-8.923 7.8v-.266c-.008-1.319-.123-2.208-1.006-2.492.005-.467-.189-.83-.649-1.04-.73-.334-1.708-.294-2.525.96-2.987 4.633-4.444 6.78-7.332 10.613-1.333 1.76-1.37 3.59-.043 3.972 1.38.397 2.657-.172 3.756-1.947 1.46-2.36 2.69-4.658 3.76-6.635.296-.006.594-.016.89-.034.186 3.87 2.126 9.19 7.404 8.331 1.939-.321 3.267-1.351 4.309-2.323.756 2.16 3.304 2.668 5.857 1.461 2.566-1.219 3.75-2.563 5.082-3.947-1.549 3.961 1.426 6.891 6.072 3.107.195-.167.386-.324.572-.473-2.329 4.895-5.145 10.347-6.887 14.08-1.192 2.552-.64 3.697.846 3.814 1.48.118 2.348-.654 3.235-2.808 1.214-2.89 3.55-9.185 7.236-16.41 3.52-6.902 8.035-8.593 8.926-8.005.945.627-.383 2.152-2.391 4.717-2.195 2.802-2.094 5.118-1.033 6.085 1.337 1.209 3.742 1.431 6.724-1a22.265 22.265 0 0 0 2.105-1.939c-.937 1.876-1.306 3.269-.039 3.781.851.338 1.977.095 2.55-1.18.819-1.872 2.715-5.13 4.798-7.4 2.641-2.886 5.028-3.416 5.57-3.064.944.627-.39 2.152-2.403 4.717-2.19 2.802-2.085 5.118-1.03 6.085 1.345 1.209 3.74 1.431 6.725-1a22.152 22.152 0 0 0 1.995-1.824c.156 3.154 3.104 4.063 6.074 2.664 2.563-1.219 3.75-2.563 5.095-3.947-1.374 4.169 2.44 6.656 6.214 3.207.953-.872 1.092-1.95.66-2.402m-65.838-.472c-1.53.965-3.532.587-2.613-2.206.855-2.615 3.125-4.119 4.512-4.119 1.469 0 2.18.915 2.598 1.684-.948 1.53-2.32 3.274-4.497 4.64m54.73 0c-1.527.966-3.528.588-2.612-2.205.863-2.615 3.02-4.119 4.407-4.119 1.467 0 2.27.915 2.709 1.694-.953 1.52-2.33 3.264-4.503 4.63" fill="#FEFEFE" mask="url(#d)"/></g></svg>